<svg xmlns="http://www.w3.org/2000/svg" xmlns:xlink="http://www.w3.org/1999/xlink" width="1080" zoomAndPan="magnify" viewBox="0 0 810 809.999993" height="1080" preserveAspectRatio="xMidYMid meet" version="1.0"><defs><clipPath id="7a90ae3188"><path d="M 294.011719 687.753906 L 552.953125 687.753906 L 552.953125 749.050781 L 294.011719 749.050781 Z M 294.011719 687.753906 " clip-rule="nonzero"/></clipPath><clipPath id="fd83b1ef75"><path d="M 294.011719 709.265625 L 552.953125 709.265625 L 552.953125 760.8125 L 294.011719 760.8125 Z M 294.011719 709.265625 " clip-rule="nonzero"/></clipPath></defs><g clip-path="url(#7a90ae3188)"><path fill="#ab5af2" d="M 294.105469 709.265625 L 388.191406 749.027344 L 552.953125 716.472656 L 469.597656 687.789062 L 294.105469 709.265625 " fill-opacity="1" fill-rule="nonzero"/></g><g clip-path="url(#fd83b1ef75)"><path fill="#9345e5" d="M 294.105469 709.265625 L 382.09375 746.453125 C 386.066406 748.132812 390.453125 748.582031 394.683594 747.746094 L 552.953125 716.472656 L 552.953125 724.277344 L 394.925781 760.382812 C 391.1875 761.234375 387.269531 760.8125 383.800781 759.1875 L 294.105469 717.105469 L 294.105469 709.265625 " fill-opacity="1" fill-rule="nonzero"/></g><path fill="#9345e5" d="M 336.34375 704.097656 L 380.03125 719.9375 L 387.121094 710.835938 L 355.648438 701.734375 L 336.34375 704.097656 " fill-opacity="1" fill-rule="nonzero"/><path fill="#9345e5" d="M 430.84375 692.53125 L 470.878906 706.914062 L 474.085938 698.296875 L 447.894531 690.722656 L 430.84375 692.53125 " fill-opacity="1" fill-rule="nonzero"/><path fill="#ab5af2" d="M 357.0625 382.863281 C 355.507812 367.140625 353.949219 351.417969 352.394531 335.695312 C 351.644531 328.097656 339.664062 328.019531 340.425781 335.695312 C 351.542969 448.054688 362.660156 560.410156 373.78125 672.769531 L 378.097656 716.421875 C 378.308594 718.542969 379.800781 720.3125 381.851562 720.878906 L 383.589844 721.359375 C 386.878906 722.269531 390.0625 719.617188 389.730469 716.214844 C 385.90625 677.007812 367.023438 483.519531 357.0625 382.863281 " fill-opacity="1" fill-rule="nonzero"/><path fill="#ab5af2" d="M 445.316406 368.683594 C 443.761719 352.960938 442.207031 337.234375 440.652344 321.511719 C 439.898438 313.917969 427.921875 313.839844 428.679688 321.511719 C 439.800781 433.871094 450.917969 546.230469 462.035156 658.589844 L 466.355469 702.242188 C 466.566406 704.359375 468.054688 706.132812 470.109375 706.699219 L 471.84375 707.179688 C 475.136719 708.089844 478.320312 705.433594 477.988281 702.035156 C 474.160156 662.828125 455.277344 469.339844 445.316406 368.683594 " fill-opacity="1" fill-rule="nonzero"/><path fill="#ab5af2" d="M 260.503906 74.554688 L 277.617188 56.066406 L 460.460938 155.773438 C 464.09375 156.804688 466.808594 163.335938 468.273438 174.574219 L 530.996094 615.878906 L 345.511719 628.675781 L 322.914062 618.390625 C 316.433594 614.957031 312.085938 608.523438 311.320312 601.230469 L 257.410156 84.875 C 256.980469 81.085938 258.105469 77.328125 260.503906 74.554688 " fill-opacity="1" fill-rule="nonzero"/><path fill="#c471ff" d="M 292.953125 54.339844 L 462.953125 123.617188 C 467.882812 126.152344 471.324219 131.101562 472.085938 136.765625 L 473.003906 143.570312 L 534.058594 608.335938 C 534.683594 612.972656 531.449219 617.085938 527.019531 617.300781 L 360.203125 630.421875 C 346.753906 631.0625 334.90625 620.488281 333.277344 606.394531 L 272.535156 69.359375 C 271.167969 57.523438 282.671875 49.0625 292.953125 54.339844 " fill-opacity="1" fill-rule="nonzero"/><path fill="#9345e5" d="M 410.136719 119.730469 C 395.429688 114.355469 380.816406 108.738281 366.292969 102.894531 C 365.621094 102.617188 366.226562 100.167969 366.90625 100.441406 C 381.402344 106.28125 395.992188 111.890625 410.675781 117.257812 C 411.355469 117.503906 410.828125 119.976562 410.136719 119.730469 C 410.140625 119.730469 410.140625 119.730469 410.136719 119.730469 " fill-opacity="1" fill-rule="nonzero"/><path fill="#9345e5" d="M 418.613281 549.507812 C 434.734375 548.796875 450.828125 547.820312 466.882812 546.59375 C 467.628906 546.53125 467.65625 543.976562 466.90625 544.035156 C 450.875 545.265625 434.808594 546.238281 418.714844 546.953125 C 417.96875 546.984375 417.855469 549.535156 418.613281 549.507812 " fill-opacity="1" fill-rule="nonzero"/><path fill="#9345e5" d="M 414.683594 451.066406 L 413.484375 435.632812 L 450.375 437.351562 L 451.777344 452.289062 L 414.683594 451.066406 " fill-opacity="1" fill-rule="nonzero"/><path fill="#ebd4ff" d="M 295.339844 92.367188 L 463.140625 151.953125 L 500.222656 431.054688 L 336.1875 422.972656 L 295.339844 92.367188 " fill-opacity="1" fill-rule="nonzero"/><path fill="#efdcff" d="M 463.140625 151.953125 L 429.070312 139.855469 L 373.984375 424.835938 L 500.222656 431.050781 L 463.140625 151.953125 " fill-opacity="1" fill-rule="nonzero"/><path fill="#e6c7ff" d="M 318.300781 157.6875 L 452.191406 191.707031 L 477.328125 365.566406 L 342.847656 352.910156 L 318.300781 157.6875 " fill-opacity="1" fill-rule="nonzero"/><path fill="#ebd2ff" d="M 420.597656 183.679688 L 387.082031 357.074219 L 477.328125 365.570312 L 452.191406 191.707031 L 420.597656 183.679688 " fill-opacity="1" fill-rule="nonzero"/><path fill="#b996ff" d="M 376.179688 194.8125 C 376.535156 194.5 376.695312 194.035156 376.65625 193.414062 C 376.625 192.855469 376.441406 192.386719 376.109375 192.015625 C 375.777344 191.640625 375.328125 191.414062 374.765625 191.324219 C 374.136719 191.230469 373.640625 191.351562 373.28125 191.6875 C 372.917969 192.023438 372.757812 192.511719 372.792969 193.148438 C 372.824219 193.671875 373.003906 194.113281 373.335938 194.472656 C 373.667969 194.832031 374.101562 195.046875 374.636719 195.132812 C 375.308594 195.234375 375.824219 195.128906 376.179688 194.8125 Z M 378.542969 191.132812 C 379.457031 192.261719 379.964844 193.710938 380.066406 195.476562 C 380.160156 197.058594 379.96875 198.417969 379.5 199.550781 C 379.027344 200.683594 378.3125 201.511719 377.359375 202.035156 C 376.402344 202.554688 375.253906 202.714844 373.921875 202.511719 C 372.714844 202.324219 371.707031 201.898438 370.898438 201.230469 C 370.089844 200.5625 369.601562 199.769531 369.441406 198.855469 L 369.402344 198.59375 C 369.378906 198.191406 369.488281 197.898438 369.734375 197.714844 C 369.980469 197.527344 370.339844 197.46875 370.8125 197.542969 C 371.15625 197.59375 371.441406 197.730469 371.660156 197.9375 C 371.882812 198.144531 372.085938 198.484375 372.269531 198.9375 C 372.410156 199.285156 372.636719 199.570312 372.9375 199.800781 C 373.238281 200.035156 373.605469 200.179688 374.046875 200.246094 C 374.957031 200.386719 375.675781 200.148438 376.207031 199.527344 C 376.742188 198.910156 377.035156 197.917969 377.097656 196.542969 C 376.714844 196.945312 376.273438 197.207031 375.765625 197.316406 C 375.257812 197.433594 374.691406 197.445312 374.0625 197.347656 C 373.28125 197.226562 372.570312 196.957031 371.929688 196.539062 C 371.292969 196.117188 370.78125 195.59375 370.402344 194.957031 C 370.023438 194.324219 369.816406 193.652344 369.773438 192.941406 C 369.722656 192.054688 369.882812 191.289062 370.257812 190.652344 C 370.632812 190.011719 371.203125 189.542969 371.972656 189.253906 C 372.742188 188.964844 373.667969 188.902344 374.75 189.066406 C 376.367188 189.3125 377.628906 190 378.542969 191.132812 " fill-opacity="1" fill-rule="nonzero"/><path fill="#b996ff" d="M 382.019531 207.042969 C 381.808594 206.855469 381.691406 206.589844 381.671875 206.253906 C 381.664062 206.113281 381.675781 205.953125 381.714844 205.773438 C 381.84375 205.085938 381.9375 204.449219 381.988281 203.859375 C 382.039062 203.265625 382.042969 202.597656 382 201.855469 C 381.953125 201.078125 382.105469 200.511719 382.449219 200.148438 C 382.792969 199.789062 383.253906 199.648438 383.835938 199.738281 C 384.402344 199.824219 384.835938 200.042969 385.144531 200.386719 C 385.453125 200.734375 385.621094 201.160156 385.652344 201.675781 C 385.683594 202.21875 385.558594 202.914062 385.28125 203.761719 C 385.003906 204.609375 384.65625 205.421875 384.234375 206.207031 C 383.953125 206.726562 383.730469 207.074219 383.558594 207.230469 C 383.390625 207.390625 383.15625 207.445312 382.859375 207.398438 C 382.511719 207.347656 382.234375 207.226562 382.019531 207.042969 " fill-opacity="1" fill-rule="nonzero"/><path fill="#b996ff" d="M 394.722656 197.644531 C 395.078125 197.328125 395.234375 196.863281 395.199219 196.242188 C 395.167969 195.683594 394.984375 195.21875 394.652344 194.84375 C 394.320312 194.472656 393.871094 194.246094 393.304688 194.15625 C 392.679688 194.058594 392.183594 194.183594 391.824219 194.515625 C 391.460938 194.851562 391.300781 195.339844 391.335938 195.976562 C 391.367188 196.503906 391.546875 196.945312 391.878906 197.304688 C 392.210938 197.660156 392.644531 197.878906 393.179688 197.960938 C 393.851562 198.0625 394.367188 197.960938 394.722656 197.644531 Z M 397.085938 193.960938 C 397.996094 195.089844 398.507812 196.539062 398.609375 198.304688 C 398.699219 199.886719 398.511719 201.246094 398.042969 202.378906 C 397.570312 203.511719 396.855469 204.339844 395.898438 204.863281 C 394.941406 205.386719 393.796875 205.542969 392.464844 205.339844 C 391.253906 205.15625 390.246094 204.730469 389.4375 204.0625 C 388.628906 203.390625 388.144531 202.597656 387.984375 201.683594 L 387.945312 201.425781 C 387.921875 201.019531 388.03125 200.726562 388.277344 200.542969 C 388.523438 200.359375 388.882812 200.300781 389.351562 200.371094 C 389.699219 200.425781 389.980469 200.558594 390.203125 200.765625 C 390.425781 200.980469 390.628906 201.316406 390.8125 201.769531 C 390.953125 202.113281 391.175781 202.402344 391.480469 202.632812 C 391.78125 202.859375 392.148438 203.011719 392.589844 203.078125 C 393.5 203.21875 394.21875 202.976562 394.75 202.363281 C 395.28125 201.742188 395.578125 200.746094 395.636719 199.375 C 395.257812 199.773438 394.8125 200.035156 394.308594 200.148438 C 393.800781 200.265625 393.234375 200.273438 392.605469 200.179688 C 391.824219 200.058594 391.109375 199.789062 390.472656 199.371094 C 389.832031 198.949219 389.324219 198.421875 388.945312 197.789062 C 388.566406 197.152344 388.355469 196.484375 388.316406 195.765625 C 388.265625 194.882812 388.425781 194.121094 388.800781 193.480469 C 389.175781 192.835938 389.746094 192.375 390.515625 192.082031 C 391.285156 191.792969 392.210938 191.730469 393.292969 191.894531 C 394.90625 192.144531 396.171875 192.832031 397.085938 193.960938 " fill-opacity="1" fill-rule="nonzero"/><path fill="#b996ff" d="M 407.453125 199.585938 C 407.808594 199.273438 407.96875 198.804688 407.929688 198.1875 C 407.898438 197.625 407.714844 197.160156 407.382812 196.789062 C 407.050781 196.414062 406.601562 196.1875 406.035156 196.097656 C 405.410156 196.003906 404.914062 196.125 404.554688 196.460938 C 404.191406 196.796875 404.03125 197.28125 404.066406 197.917969 C 404.097656 198.445312 404.277344 198.886719 404.609375 199.246094 C 404.941406 199.601562 405.375 199.820312 405.910156 199.90625 C 406.582031 200.007812 407.097656 199.902344 407.453125 199.585938 Z M 409.816406 195.90625 C 410.730469 197.035156 411.238281 198.484375 411.339844 200.25 C 411.429688 201.828125 411.242188 203.1875 410.773438 204.320312 C 410.300781 205.457031 409.585938 206.285156 408.632812 206.804688 C 407.671875 207.328125 406.527344 207.488281 405.195312 207.28125 C 403.988281 207.097656 402.976562 206.671875 402.171875 206.003906 C 401.363281 205.335938 400.875 204.542969 400.714844 203.628906 L 400.675781 203.367188 C 400.652344 202.964844 400.761719 202.671875 401.007812 202.488281 C 401.253906 202.300781 401.613281 202.242188 402.085938 202.316406 C 402.429688 202.371094 402.710938 202.5 402.933594 202.710938 C 403.15625 202.921875 403.359375 203.257812 403.539062 203.710938 C 403.683594 204.058594 403.90625 204.34375 404.210938 204.574219 C 404.511719 204.804688 404.878906 204.953125 405.320312 205.019531 C 406.226562 205.160156 406.949219 204.917969 407.480469 204.304688 C 408.015625 203.683594 408.308594 202.6875 408.367188 201.316406 C 407.988281 201.71875 407.546875 201.980469 407.039062 202.089844 C 406.53125 202.207031 405.964844 202.214844 405.335938 202.121094 C 404.550781 202 403.839844 201.730469 403.203125 201.3125 C 402.566406 200.890625 402.054688 200.363281 401.675781 199.730469 C 401.296875 199.09375 401.085938 198.421875 401.046875 197.710938 C 400.996094 196.828125 401.15625 196.0625 401.53125 195.425781 C 401.90625 194.78125 402.476562 194.3125 403.246094 194.023438 C 404.015625 193.738281 404.941406 193.675781 406.023438 193.835938 C 407.636719 194.085938 408.902344 194.773438 409.816406 195.90625 " fill-opacity="1" fill-rule="nonzero"/><path fill="#b996ff" d="M 420.40625 206.964844 C 420.6875 206.753906 420.820312 206.445312 420.796875 206.046875 C 420.777344 205.734375 420.648438 205.445312 420.40625 205.179688 C 420.164062 204.910156 419.820312 204.640625 419.367188 204.375 L 419.164062 207.269531 C 419.707031 207.277344 420.121094 207.175781 420.40625 206.964844 Z M 416.953125 200.148438 C 417.1875 200.421875 417.515625 200.699219 417.9375 200.976562 L 418.148438 197.828125 C 417.621094 197.828125 417.21875 197.949219 416.945312 198.199219 C 416.671875 198.449219 416.550781 198.796875 416.578125 199.246094 C 416.59375 199.574219 416.71875 199.871094 416.953125 200.148438 Z M 421.519531 203.023438 C 422.042969 203.375 422.5 203.824219 422.878906 204.355469 C 423.261719 204.894531 423.472656 205.507812 423.511719 206.207031 C 423.574219 207.289062 423.199219 208.117188 422.382812 208.679688 C 421.570312 209.25 420.449219 209.480469 419.03125 209.371094 L 418.878906 211.605469 C 418.863281 211.832031 418.757812 211.996094 418.570312 212.097656 C 418.382812 212.199219 418.164062 212.230469 417.910156 212.191406 C 417.675781 212.15625 417.480469 212.0625 417.324219 211.90625 C 417.164062 211.753906 417.097656 211.5625 417.113281 211.335938 L 417.285156 209.058594 C 416.132812 208.726562 415.203125 208.21875 414.503906 207.527344 C 413.800781 206.835938 413.429688 206.089844 413.382812 205.28125 C 413.347656 204.738281 413.46875 204.34375 413.730469 204.089844 C 413.996094 203.839844 414.324219 203.742188 414.71875 203.800781 C 415.109375 203.859375 415.40625 204.015625 415.609375 204.261719 C 415.808594 204.511719 415.960938 204.867188 416.066406 205.34375 C 416.136719 205.710938 416.289062 206.027344 416.53125 206.304688 C 416.773438 206.578125 417.085938 206.792969 417.464844 206.941406 L 417.734375 203.527344 C 416.996094 203.136719 416.363281 202.753906 415.835938 202.375 C 415.308594 201.992188 414.863281 201.523438 414.496094 200.96875 C 414.128906 200.414062 413.925781 199.765625 413.878906 199.023438 C 413.8125 197.875 414.199219 197.011719 415.035156 196.433594 C 415.875 195.855469 416.964844 195.621094 418.308594 195.734375 L 418.453125 193.453125 C 418.457031 193.222656 418.550781 193.058594 418.730469 192.964844 C 418.910156 192.871094 419.117188 192.839844 419.355469 192.875 C 419.589844 192.914062 419.792969 193.007812 419.964844 193.164062 C 420.136719 193.320312 420.214844 193.503906 420.195312 193.71875 L 420.003906 196.0625 C 421.019531 196.371094 421.832031 196.832031 422.441406 197.445312 C 423.054688 198.0625 423.382812 198.765625 423.425781 199.558594 C 423.457031 200.085938 423.34375 200.453125 423.085938 200.667969 C 422.824219 200.882812 422.492188 200.957031 422.082031 200.894531 C 421.753906 200.84375 421.476562 200.699219 421.253906 200.46875 C 421.03125 200.238281 420.898438 199.949219 420.863281 199.605469 C 420.78125 198.945312 420.441406 198.472656 419.851562 198.183594 L 419.550781 201.867188 C 420.335938 202.28125 420.992188 202.664062 421.519531 203.023438 " fill-opacity="1" fill-rule="nonzero"/><path fill="#d8bcff" d="M 419.367188 204.375 C 419.820312 204.644531 420.164062 204.914062 420.40625 205.183594 C 420.648438 205.445312 420.777344 205.734375 420.792969 206.046875 C 420.820312 206.449219 420.6875 206.757812 420.40625 206.964844 C 420.121094 207.175781 419.707031 207.28125 419.164062 207.273438 Z M 417.324219 211.910156 C 417.480469 212.0625 417.675781 212.15625 417.910156 212.195312 C 418.160156 212.234375 418.382812 212.203125 418.570312 212.097656 C 418.757812 211.996094 418.859375 211.832031 418.878906 211.605469 L 419.03125 209.371094 C 420.449219 209.480469 421.566406 209.25 422.382812 208.683594 C 423.199219 208.117188 423.574219 207.292969 423.507812 206.207031 C 423.46875 205.507812 423.257812 204.894531 422.878906 204.359375 C 422.496094 203.828125 422.042969 203.378906 421.515625 203.023438 C 420.992188 202.667969 420.335938 202.28125 419.550781 201.867188 L 419.847656 198.183594 C 420.441406 198.472656 420.78125 198.949219 420.863281 199.605469 C 420.898438 199.949219 421.03125 200.238281 421.253906 200.472656 C 421.476562 200.703125 421.753906 200.847656 422.082031 200.894531 C 422.492188 200.957031 422.824219 200.882812 423.082031 200.667969 C 423.34375 200.457031 423.457031 200.085938 423.425781 199.558594 C 423.382812 198.765625 423.054688 198.066406 422.441406 197.449219 C 421.832031 196.832031 421.019531 196.371094 420.003906 196.0625 L 420.195312 193.722656 C 420.214844 193.507812 420.136719 193.324219 419.964844 193.167969 C 419.792969 193.011719 419.589844 192.914062 419.355469 192.878906 C 419.152344 192.847656 418.96875 192.867188 418.808594 192.933594 L 418.328125 195.425781 L 418.308594 195.734375 C 418.292969 195.734375 418.28125 195.734375 418.269531 195.730469 L 417.859375 197.84375 C 417.953125 197.835938 418.046875 197.828125 418.148438 197.832031 L 417.9375 200.980469 C 417.710938 200.828125 417.511719 200.679688 417.339844 200.53125 L 416.855469 203.039062 C 417.128906 203.203125 417.421875 203.363281 417.734375 203.53125 L 417.464844 206.945312 C 417.082031 206.792969 416.773438 206.578125 416.53125 206.304688 C 416.4375 206.199219 416.355469 206.085938 416.289062 205.964844 L 415.804688 208.472656 C 416.25 208.707031 416.742188 208.902344 417.285156 209.058594 L 417.113281 211.335938 C 417.097656 211.566406 417.164062 211.757812 417.324219 211.910156 " fill-opacity="1" fill-rule="nonzero"/><path fill="#e6c7ff" d="M 317.136719 119.914062 L 319.632812 139.75 L 453.652344 176.527344 L 452.628906 162.199219 L 317.136719 119.914062 " fill-opacity="1" fill-rule="nonzero"/><path fill="#ebd2ff" d="M 423.574219 168.273438 L 453.652344 176.527344 L 452.628906 162.199219 L 426.335938 153.992188 L 423.574219 168.273438 " fill-opacity="1" fill-rule="nonzero"/><path fill="#e6c7ff" d="M 357.339844 367.945312 L 349.3125 367.152344 C 348.984375 367.121094 348.683594 366.847656 348.652344 366.546875 L 348.484375 364.972656 C 348.449219 364.671875 348.695312 364.457031 349.027344 364.492188 L 357.050781 365.308594 C 357.375 365.34375 357.667969 365.613281 357.699219 365.910156 L 357.871094 367.464844 C 357.902344 367.761719 357.664062 367.976562 357.339844 367.945312 " fill-opacity="1" fill-rule="nonzero"/><path fill="#e6c7ff" d="M 364.507812 378.644531 L 350.417969 377.421875 C 350.089844 377.394531 349.792969 377.128906 349.761719 376.828125 L 349.125 370.910156 C 349.089844 370.613281 349.332031 370.398438 349.660156 370.429688 L 363.734375 371.765625 C 364.050781 371.796875 364.335938 372.058594 364.371094 372.351562 L 365.019531 378.164062 C 365.054688 378.457031 364.824219 378.671875 364.507812 378.644531 " fill-opacity="1" fill-rule="nonzero"/><path fill="#e6c7ff" d="M 376.492188 379.683594 L 369.027344 379.035156 C 368.710938 379.007812 368.429688 378.75 368.394531 378.457031 L 367.742188 372.667969 C 367.707031 372.378906 367.9375 372.164062 368.25 372.195312 L 375.710938 372.90625 C 376.015625 372.933594 376.292969 373.191406 376.328125 373.480469 L 376.988281 379.207031 C 377.023438 379.496094 376.796875 379.710938 376.492188 379.683594 " fill-opacity="1" fill-rule="nonzero"/><path fill="#e6c7ff" d="M 388.132812 380.695312 L 380.878906 380.066406 C 380.574219 380.039062 380.300781 379.785156 380.265625 379.496094 L 379.601562 373.789062 C 379.570312 373.503906 379.789062 373.292969 380.09375 373.320312 L 387.339844 374.011719 C 387.636719 374.035156 387.90625 374.292969 387.941406 374.578125 L 388.613281 380.226562 C 388.648438 380.507812 388.429688 380.71875 388.132812 380.695312 " fill-opacity="1" fill-rule="nonzero"/><path fill="#ebd2ff" d="M 388.613281 380.222656 L 387.941406 374.574219 C 387.910156 374.289062 387.636719 374.035156 387.339844 374.007812 L 383.871094 373.675781 L 382.609375 380.214844 L 388.132812 380.695312 C 388.429688 380.71875 388.648438 380.507812 388.613281 380.222656 " fill-opacity="1" fill-rule="nonzero"/><path fill="#ebd2ff" d="M 399.441406 381.675781 L 392.394531 381.0625 C 392.101562 381.039062 391.832031 380.785156 391.796875 380.503906 L 391.125 374.875 C 391.089844 374.59375 391.304688 374.386719 391.597656 374.414062 L 398.640625 375.082031 C 398.929688 375.109375 399.195312 375.359375 399.230469 375.640625 L 399.90625 381.210938 C 399.941406 381.492188 399.730469 381.699219 399.441406 381.675781 " fill-opacity="1" fill-rule="nonzero"/><path fill="#ebd2ff" d="M 410.4375 382.628906 L 403.585938 382.035156 C 403.300781 382.011719 403.035156 381.757812 403 381.484375 L 402.320312 375.933594 C 402.285156 375.65625 402.492188 375.449219 402.78125 375.476562 L 409.625 376.128906 C 409.90625 376.152344 410.164062 376.402344 410.199219 376.675781 L 410.886719 382.171875 C 410.921875 382.445312 410.71875 382.652344 410.4375 382.628906 " fill-opacity="1" fill-rule="nonzero"/><path fill="#ebd2ff" d="M 420.863281 383.535156 L 414.195312 382.957031 C 413.917969 382.929688 413.660156 382.683594 413.625 382.410156 L 412.9375 376.933594 C 412.902344 376.660156 413.101562 376.457031 413.382812 376.484375 L 420.042969 377.117188 C 420.316406 377.140625 420.570312 377.386719 420.605469 377.65625 L 421.300781 383.082031 C 421.332031 383.351562 421.136719 383.558594 420.863281 383.535156 " fill-opacity="1" fill-rule="nonzero"/><path fill="#ebd2ff" d="M 431.273438 384.433594 L 424.785156 383.871094 C 424.515625 383.847656 424.265625 383.605469 424.230469 383.332031 L 423.535156 377.929688 C 423.5 377.660156 423.691406 377.460938 423.964844 377.488281 L 430.445312 378.101562 C 430.710938 378.128906 430.960938 378.371094 430.996094 378.636719 L 431.695312 383.988281 C 431.730469 384.253906 431.539062 384.457031 431.273438 384.433594 " fill-opacity="1" fill-rule="nonzero"/><path fill="#ebd2ff" d="M 441.402344 385.3125 L 435.089844 384.765625 C 434.824219 384.742188 434.578125 384.503906 434.542969 384.238281 L 433.84375 378.902344 C 433.808594 378.640625 433.996094 378.441406 434.261719 378.464844 L 440.566406 379.0625 C 440.828125 379.089844 441.070312 379.328125 441.105469 379.589844 L 441.808594 384.871094 C 441.847656 385.136719 441.660156 385.335938 441.402344 385.3125 " fill-opacity="1" fill-rule="nonzero"/><path fill="#ebd2ff" d="M 451.261719 386.167969 L 445.117188 385.636719 C 444.859375 385.613281 444.617188 385.378906 444.585938 385.113281 L 443.878906 379.851562 C 443.84375 379.589844 444.023438 379.394531 444.28125 379.417969 L 450.421875 380 C 450.675781 380.023438 450.910156 380.257812 450.949219 380.519531 L 451.65625 385.730469 C 451.691406 385.996094 451.515625 386.1875 451.261719 386.167969 " fill-opacity="1" fill-rule="nonzero"/><path fill="#ebd2ff" d="M 460.867188 387 L 454.878906 386.480469 C 454.628906 386.457031 454.394531 386.230469 454.359375 385.96875 L 453.648438 380.773438 C 453.613281 380.515625 453.789062 380.320312 454.039062 380.34375 L 460.019531 380.914062 C 460.265625 380.933594 460.496094 381.167969 460.535156 381.425781 L 461.25 386.566406 C 461.285156 386.828125 461.113281 387.019531 460.867188 387 " fill-opacity="1" fill-rule="nonzero"/><path fill="#ebd2ff" d="M 477.632812 388.453125 L 464.390625 387.308594 C 464.144531 387.28125 463.914062 387.058594 463.878906 386.796875 L 463.164062 381.671875 C 463.128906 381.414062 463.296875 381.222656 463.542969 381.246094 L 476.78125 382.503906 C 477.015625 382.527344 477.238281 382.75 477.273438 383.003906 L 477.996094 388.035156 C 478.03125 388.285156 477.871094 388.476562 477.632812 388.453125 " fill-opacity="1" fill-rule="nonzero"/><path fill="#e6c7ff" d="M 369.265625 389.074219 L 351.53125 387.753906 C 351.207031 387.730469 350.910156 387.464844 350.878906 387.164062 L 350.234375 381.210938 C 350.203125 380.914062 350.445312 380.691406 350.773438 380.71875 L 368.488281 382.1875 C 368.800781 382.210938 369.082031 382.472656 369.117188 382.765625 L 369.773438 388.585938 C 369.808594 388.878906 369.578125 389.097656 369.265625 389.074219 " fill-opacity="1" fill-rule="nonzero"/><path fill="#e6c7ff" d="M 381.375 389.972656 L 373.964844 389.421875 C 373.65625 389.402344 373.375 389.144531 373.339844 388.851562 L 372.679688 383.058594 C 372.644531 382.765625 372.871094 382.546875 373.183594 382.574219 L 380.582031 383.1875 C 380.886719 383.210938 381.164062 383.46875 381.199219 383.753906 L 381.867188 389.492188 C 381.898438 389.78125 381.679688 389.996094 381.375 389.972656 " fill-opacity="1" fill-rule="nonzero"/><path fill="#ebd2ff" d="M 381.375 389.972656 C 381.679688 390 381.898438 389.78125 381.867188 389.492188 L 381.472656 386.101562 L 380.730469 389.929688 L 381.375 389.972656 " fill-opacity="1" fill-rule="nonzero"/><path fill="#ebd2ff" d="M 392.921875 390.835938 L 385.726562 390.300781 C 385.425781 390.277344 385.152344 390.023438 385.117188 389.738281 L 384.445312 384.023438 C 384.414062 383.738281 384.632812 383.523438 384.933594 383.546875 L 392.121094 384.144531 C 392.417969 384.167969 392.6875 384.421875 392.722656 384.703125 L 393.398438 390.359375 C 393.433594 390.644531 393.21875 390.859375 392.921875 390.835938 " fill-opacity="1" fill-rule="nonzero"/><path fill="#ebd2ff" d="M 404.148438 391.667969 L 397.152344 391.148438 C 396.859375 391.128906 396.59375 390.878906 396.558594 390.597656 L 395.878906 384.964844 C 395.84375 384.679688 396.058594 384.46875 396.351562 384.492188 L 403.335938 385.070312 C 403.625 385.09375 403.886719 385.34375 403.921875 385.621094 L 404.605469 391.199219 C 404.640625 391.480469 404.433594 391.695312 404.148438 391.667969 " fill-opacity="1" fill-rule="nonzero"/><path fill="#ebd2ff" d="M 415.058594 392.484375 L 408.257812 391.976562 C 407.972656 391.957031 407.710938 391.710938 407.679688 391.429688 L 406.992188 385.875 C 406.957031 385.597656 407.160156 385.390625 407.445312 385.414062 L 414.238281 385.976562 C 414.515625 386 414.773438 386.246094 414.808594 386.519531 L 415.5 392.019531 C 415.535156 392.292969 415.335938 392.503906 415.058594 392.484375 " fill-opacity="1" fill-rule="nonzero"/><path fill="#ebd2ff" d="M 425.664062 393.273438 L 419.050781 392.78125 C 418.777344 392.757812 418.519531 392.515625 418.484375 392.242188 L 417.792969 386.761719 C 417.757812 386.488281 417.953125 386.28125 418.230469 386.304688 L 424.835938 386.851562 C 425.109375 386.875 425.363281 387.117188 425.394531 387.386719 L 426.09375 392.8125 C 426.128906 393.085938 425.9375 393.292969 425.664062 393.273438 " fill-opacity="1" fill-rule="nonzero"/><path fill="#ebd2ff" d="M 435.875 394.035156 L 429.445312 393.554688 C 429.171875 393.535156 428.921875 393.296875 428.886719 393.023438 L 428.1875 387.617188 C 428.152344 387.347656 428.34375 387.144531 428.613281 387.164062 L 435.042969 387.699219 C 435.308594 387.722656 435.554688 387.960938 435.589844 388.226562 L 436.292969 393.582031 C 436.328125 393.851562 436.140625 394.054688 435.875 394.035156 " fill-opacity="1" fill-rule="nonzero"/><path fill="#ebd2ff" d="M 446.207031 394.800781 L 439.949219 394.335938 C 439.6875 394.316406 439.445312 394.082031 439.410156 393.8125 L 438.703125 388.480469 C 438.667969 388.210938 438.851562 388.011719 439.113281 388.035156 L 445.367188 388.550781 C 445.625 388.570312 445.867188 388.808594 445.902344 389.070312 L 446.613281 394.351562 C 446.648438 394.617188 446.464844 394.824219 446.207031 394.800781 " fill-opacity="1" fill-rule="nonzero"/><path fill="#ebd2ff" d="M 456.335938 395.558594 L 450.246094 395.105469 C 449.992188 395.085938 449.753906 394.855469 449.71875 394.585938 L 449.007812 389.328125 C 448.972656 389.066406 449.148438 388.867188 449.40625 388.886719 L 455.488281 389.390625 C 455.738281 389.410156 455.972656 389.640625 456.007812 389.902344 L 456.722656 395.117188 C 456.761719 395.375 456.585938 395.578125 456.335938 395.558594 " fill-opacity="1" fill-rule="nonzero"/><path fill="#ebd2ff" d="M 478.894531 397.238281 L 460.246094 395.847656 C 459.996094 395.828125 459.765625 395.601562 459.726562 395.339844 L 459.011719 390.148438 C 458.972656 389.890625 459.148438 389.691406 459.394531 389.714844 L 478.035156 391.257812 C 478.273438 391.277344 478.492188 391.5 478.53125 391.753906 L 479.253906 396.804688 C 479.292969 397.0625 479.128906 397.253906 478.894531 397.238281 " fill-opacity="1" fill-rule="nonzero"/><path fill="#e6c7ff" d="M 370.414062 399.246094 L 352.65625 398.144531 C 352.328125 398.121094 352.03125 397.859375 352 397.5625 L 351.355469 391.570312 C 351.320312 391.273438 351.5625 391.046875 351.890625 391.070312 L 369.632812 392.316406 C 369.945312 392.339844 370.230469 392.597656 370.261719 392.894531 L 370.925781 398.746094 C 370.960938 399.042969 370.730469 399.265625 370.414062 399.246094 " fill-opacity="1" fill-rule="nonzero"/><path fill="#e6c7ff" d="M 383.054688 400.03125 L 375.648438 399.574219 C 375.335938 399.554688 375.054688 399.296875 375.019531 399.003906 L 374.355469 393.179688 C 374.320312 392.890625 374.546875 392.667969 374.859375 392.691406 L 382.261719 393.210938 C 382.566406 393.234375 382.839844 393.488281 382.875 393.777344 L 383.546875 399.539062 C 383.582031 399.828125 383.359375 400.054688 383.054688 400.03125 " fill-opacity="1" fill-rule="nonzero"/><path fill="#ebd2ff" d="M 383.546875 399.542969 L 382.875 393.777344 C 382.839844 393.488281 382.5625 393.234375 382.261719 393.210938 L 380.125 393.0625 L 378.828125 399.769531 L 383.054688 400.035156 C 383.359375 400.054688 383.582031 399.832031 383.546875 399.542969 " fill-opacity="1" fill-rule="nonzero"/><path fill="#ebd2ff" d="M 395.335938 400.792969 L 388.152344 400.347656 C 387.851562 400.328125 387.578125 400.078125 387.542969 399.789062 L 386.867188 394.054688 C 386.835938 393.765625 387.054688 393.546875 387.355469 393.566406 L 394.53125 394.074219 C 394.824219 394.09375 395.09375 394.34375 395.128906 394.628906 L 395.8125 400.308594 C 395.84375 400.59375 395.632812 400.8125 395.335938 400.792969 " fill-opacity="1" fill-rule="nonzero"/><path fill="#ebd2ff" d="M 407.230469 401.53125 L 400.265625 401.097656 C 399.972656 401.082031 399.703125 400.832031 399.667969 400.550781 L 398.984375 394.898438 C 398.953125 394.617188 399.164062 394.402344 399.453125 394.421875 L 406.414062 394.914062 C 406.703125 394.933594 406.964844 395.179688 406.996094 395.457031 L 407.6875 401.054688 C 407.722656 401.335938 407.515625 401.550781 407.230469 401.53125 " fill-opacity="1" fill-rule="nonzero"/><path fill="#ebd2ff" d="M 418.480469 402.234375 L 411.714844 401.8125 C 411.429688 401.792969 411.171875 401.550781 411.136719 401.273438 L 410.445312 395.703125 C 410.410156 395.425781 410.613281 395.210938 410.894531 395.230469 L 417.65625 395.707031 C 417.933594 395.726562 418.191406 395.96875 418.226562 396.246094 L 418.925781 401.761719 C 418.960938 402.039062 418.761719 402.25 418.480469 402.234375 " fill-opacity="1" fill-rule="nonzero"/><path fill="#ebd2ff" d="M 429.335938 402.90625 L 422.761719 402.496094 C 422.484375 402.480469 422.230469 402.238281 422.195312 401.964844 L 421.496094 396.472656 C 421.460938 396.199219 421.660156 395.988281 421.933594 396.007812 L 428.503906 396.46875 C 428.773438 396.488281 429.023438 396.730469 429.058594 397 L 429.765625 402.4375 C 429.800781 402.710938 429.609375 402.921875 429.335938 402.90625 " fill-opacity="1" fill-rule="nonzero"/><path fill="#ebd2ff" d="M 440.070312 403.570312 L 433.683594 403.175781 C 433.414062 403.160156 433.164062 402.921875 433.128906 402.648438 L 432.421875 397.238281 C 432.386719 396.96875 432.578125 396.761719 432.847656 396.777344 L 439.230469 397.230469 C 439.496094 397.246094 439.738281 397.484375 439.773438 397.753906 L 440.484375 403.113281 C 440.519531 403.382812 440.335938 403.589844 440.070312 403.570312 " fill-opacity="1" fill-rule="nonzero"/><path fill="#ebd2ff" d="M 450.644531 404.226562 L 444.4375 403.84375 C 444.175781 403.828125 443.933594 403.59375 443.898438 403.324219 L 443.1875 397.988281 C 443.152344 397.71875 443.335938 397.515625 443.59375 397.535156 L 449.800781 397.972656 C 450.054688 397.992188 450.292969 398.222656 450.328125 398.484375 L 451.046875 403.773438 C 451.082031 404.039062 450.902344 404.246094 450.644531 404.226562 " fill-opacity="1" fill-rule="nonzero"/><path fill="#ebd2ff" d="M 461.042969 404.875 L 455.011719 404.5 C 454.757812 404.484375 454.519531 404.257812 454.484375 403.992188 L 453.765625 398.730469 C 453.730469 398.464844 453.90625 398.261719 454.160156 398.28125 L 460.191406 398.707031 C 460.4375 398.722656 460.671875 398.953125 460.707031 399.214844 L 461.429688 404.425781 C 461.464844 404.6875 461.292969 404.890625 461.042969 404.875 " fill-opacity="1" fill-rule="nonzero"/><path fill="#ebd2ff" d="M 470.953125 405.488281 L 465.082031 405.125 C 464.835938 405.109375 464.605469 404.882812 464.570312 404.625 L 463.847656 399.429688 C 463.8125 399.171875 463.984375 398.972656 464.230469 398.992188 L 470.097656 399.40625 C 470.335938 399.421875 470.566406 399.648438 470.601562 399.90625 L 471.328125 405.046875 C 471.363281 405.304688 471.195312 405.503906 470.953125 405.488281 " fill-opacity="1" fill-rule="nonzero"/><path fill="#ebd2ff" d="M 480.320312 406.074219 L 474.605469 405.71875 C 474.367188 405.703125 474.140625 405.480469 474.101562 405.222656 L 473.378906 400.101562 C 473.339844 399.84375 473.507812 399.644531 473.746094 399.664062 L 479.460938 400.066406 C 479.695312 400.082031 479.917969 400.304688 479.953125 400.558594 L 480.683594 405.636719 C 480.71875 405.890625 480.554688 406.085938 480.320312 406.074219 " fill-opacity="1" fill-rule="nonzero"/><path fill="#e6c7ff" d="M 385.714844 410.179688 L 378.328125 409.8125 C 378.015625 409.796875 377.734375 409.546875 377.699219 409.25 L 377.03125 403.402344 C 376.996094 403.109375 377.222656 402.886719 377.53125 402.902344 L 384.914062 403.332031 C 385.21875 403.351562 385.496094 403.601562 385.53125 403.890625 L 386.207031 409.679688 C 386.242188 409.96875 386.019531 410.195312 385.714844 410.179688 " fill-opacity="1" fill-rule="nonzero"/><path fill="#ebd2ff" d="M 377.699219 409.25 C 377.734375 409.542969 378.015625 409.796875 378.328125 409.8125 L 385.71875 410.179688 C 386.019531 410.195312 386.242188 409.96875 386.207031 409.679688 L 385.53125 403.890625 C 385.496094 403.601562 385.21875 403.351562 384.914062 403.332031 L 378.214844 402.941406 L 377.4375 406.964844 L 377.699219 409.25 " fill-opacity="1" fill-rule="nonzero"/><path fill="#ebd2ff" d="M 397.238281 410.753906 L 390.0625 410.394531 C 389.757812 410.382812 389.484375 410.132812 389.449219 409.84375 L 388.769531 404.078125 C 388.738281 403.789062 388.957031 403.566406 389.253906 403.585938 L 396.429688 404.003906 C 396.722656 404.019531 396.992188 404.265625 397.027344 404.554688 L 397.714844 410.261719 C 397.746094 410.542969 397.535156 410.769531 397.238281 410.753906 " fill-opacity="1" fill-rule="nonzero"/><path fill="#ebd2ff" d="M 443.398438 413.042969 L 401.460938 410.960938 C 401.167969 410.945312 400.898438 410.703125 400.863281 410.414062 L 400.175781 404.734375 C 400.140625 404.449219 400.351562 404.230469 400.644531 404.25 L 442.550781 406.683594 C 442.8125 406.699219 443.054688 406.929688 443.089844 407.199219 L 443.808594 412.574219 C 443.84375 412.84375 443.65625 413.054688 443.398438 413.042969 " fill-opacity="1" fill-rule="nonzero"/><path fill="#e6c7ff" d="M 361.519531 408.980469 L 353.671875 408.589844 C 353.34375 408.574219 353.046875 408.3125 353.015625 408.011719 L 352.363281 401.988281 C 352.332031 401.683594 352.574219 401.453125 352.902344 401.472656 L 360.742188 401.929688 C 361.0625 401.945312 361.355469 402.207031 361.386719 402.507812 L 362.046875 408.464844 C 362.078125 408.765625 361.84375 408.996094 361.519531 408.980469 " fill-opacity="1" fill-rule="nonzero"/><path fill="#e6c7ff" d="M 373.742188 409.585938 L 366.128906 409.210938 C 365.808594 409.191406 365.519531 408.933594 365.488281 408.636719 L 364.828125 402.703125 C 364.792969 402.40625 365.027344 402.175781 365.347656 402.195312 L 372.953125 402.640625 C 373.265625 402.65625 373.550781 402.914062 373.582031 403.207031 L 374.25 409.078125 C 374.285156 409.375 374.058594 409.601562 373.742188 409.585938 " fill-opacity="1" fill-rule="nonzero"/><path fill="#ebd2ff" d="M 453.328125 413.539062 L 447.136719 413.230469 C 446.878906 413.21875 446.636719 412.984375 446.601562 412.714844 L 445.882812 407.363281 C 445.847656 407.09375 446.03125 406.886719 446.289062 406.902344 L 452.476562 407.261719 C 452.730469 407.273438 452.96875 407.503906 453.003906 407.769531 L 453.726562 413.074219 C 453.761719 413.34375 453.582031 413.550781 453.328125 413.539062 " fill-opacity="1" fill-rule="nonzero"/><path fill="#ebd2ff" d="M 463 414.015625 L 456.972656 413.71875 C 456.71875 413.703125 456.480469 413.476562 456.445312 413.210938 L 455.722656 407.925781 C 455.6875 407.664062 455.863281 407.457031 456.117188 407.472656 L 462.140625 407.824219 C 462.390625 407.835938 462.621094 408.0625 462.660156 408.328125 L 463.382812 413.558594 C 463.417969 413.824219 463.246094 414.03125 463 414.015625 " fill-opacity="1" fill-rule="nonzero"/><path fill="#ebd2ff" d="M 472.417969 414.484375 L 466.546875 414.195312 C 466.300781 414.179688 466.070312 413.957031 466.03125 413.695312 L 465.308594 408.476562 C 465.269531 408.21875 465.441406 408.015625 465.6875 408.027344 L 471.554688 408.367188 C 471.796875 408.382812 472.023438 408.605469 472.0625 408.867188 L 472.789062 414.03125 C 472.828125 414.292969 472.660156 414.496094 472.417969 414.484375 " fill-opacity="1" fill-rule="nonzero"/><path fill="#ebd2ff" d="M 481.59375 414.9375 L 475.875 414.65625 C 475.632812 414.644531 475.40625 414.421875 475.371094 414.164062 L 474.640625 409.015625 C 474.605469 408.757812 474.769531 408.558594 475.007812 408.574219 L 480.730469 408.902344 C 480.960938 408.917969 481.1875 409.136719 481.222656 409.394531 L 481.957031 414.496094 C 481.992188 414.75 481.828125 414.953125 481.59375 414.9375 " fill-opacity="1" fill-rule="nonzero"/><path fill="#e6c7ff" d="M 369.8125 369.179688 L 362.027344 368.410156 C 361.707031 368.378906 361.417969 368.109375 361.382812 367.8125 L 361.210938 366.265625 C 361.179688 365.96875 361.414062 365.753906 361.734375 365.789062 L 369.519531 366.582031 C 369.832031 366.613281 370.117188 366.878906 370.152344 367.171875 L 370.324219 368.707031 C 370.359375 368.996094 370.128906 369.210938 369.8125 369.179688 " fill-opacity="1" fill-rule="nonzero"/><path fill="#e6c7ff" d="M 381.917969 370.378906 L 374.363281 369.628906 C 374.050781 369.597656 373.769531 369.335938 373.734375 369.042969 L 373.558594 367.515625 C 373.527344 367.226562 373.753906 367.015625 374.066406 367.046875 L 381.617188 367.816406 C 381.921875 367.847656 382.199219 368.109375 382.234375 368.394531 L 382.414062 369.910156 C 382.445312 370.195312 382.222656 370.40625 381.917969 370.378906 " fill-opacity="1" fill-rule="nonzero"/><path fill="#ebd2ff" d="M 393.378906 371.507812 L 386.039062 370.78125 C 385.734375 370.75 385.457031 370.496094 385.425781 370.203125 L 385.246094 368.699219 C 385.210938 368.414062 385.433594 368.203125 385.734375 368.234375 L 393.074219 368.984375 C 393.371094 369.011719 393.640625 369.269531 393.675781 369.554688 L 393.855469 371.046875 C 393.890625 371.328125 393.675781 371.535156 393.378906 371.507812 " fill-opacity="1" fill-rule="nonzero"/><path fill="#ebd2ff" d="M 404.796875 372.640625 L 397.667969 371.933594 C 397.375 371.90625 397.105469 371.648438 397.070312 371.367188 L 396.890625 369.882812 C 396.855469 369.597656 397.070312 369.394531 397.363281 369.421875 L 404.488281 370.148438 C 404.777344 370.179688 405.042969 370.433594 405.078125 370.710938 L 405.261719 372.179688 C 405.292969 372.460938 405.085938 372.664062 404.796875 372.640625 " fill-opacity="1" fill-rule="nonzero"/><path fill="#ebd2ff" d="M 415.894531 373.734375 L 408.96875 373.050781 C 408.679688 373.023438 408.417969 372.769531 408.382812 372.492188 L 408.199219 371.027344 C 408.164062 370.75 408.371094 370.546875 408.65625 370.574219 L 415.582031 371.28125 C 415.863281 371.308594 416.121094 371.558594 416.15625 371.832031 L 416.339844 373.285156 C 416.375 373.558594 416.175781 373.761719 415.894531 373.734375 " fill-opacity="1" fill-rule="nonzero"/><path fill="#ebd2ff" d="M 426.679688 374.804688 L 419.945312 374.136719 C 419.667969 374.109375 419.414062 373.859375 419.375 373.585938 L 419.191406 372.144531 C 419.15625 371.867188 419.355469 371.667969 419.632812 371.695312 L 426.363281 372.382812 C 426.640625 372.410156 426.890625 372.652344 426.925781 372.925781 L 427.109375 374.355469 C 427.148438 374.628906 426.953125 374.828125 426.679688 374.804688 " fill-opacity="1" fill-rule="nonzero"/><path fill="#ebd2ff" d="M 437.167969 375.835938 L 430.621094 375.191406 C 430.347656 375.164062 430.097656 374.917969 430.0625 374.648438 L 429.875 373.222656 C 429.839844 372.953125 430.035156 372.753906 430.304688 372.78125 L 436.851562 373.449219 C 437.117188 373.476562 437.363281 373.71875 437.398438 373.988281 L 437.585938 375.398438 C 437.621094 375.667969 437.433594 375.863281 437.167969 375.835938 " fill-opacity="1" fill-rule="nonzero"/><path fill="#ebd2ff" d="M 447.371094 376.847656 L 441 376.21875 C 440.738281 376.191406 440.492188 375.949219 440.457031 375.683594 L 440.269531 374.277344 C 440.234375 374.011719 440.417969 373.8125 440.679688 373.839844 L 447.050781 374.488281 C 447.308594 374.515625 447.550781 374.753906 447.585938 375.019531 L 447.773438 376.410156 C 447.808594 376.675781 447.628906 376.871094 447.371094 376.847656 " fill-opacity="1" fill-rule="nonzero"/><path fill="#ebd2ff" d="M 457.296875 377.828125 L 451.097656 377.21875 C 450.84375 377.191406 450.601562 376.953125 450.566406 376.6875 L 450.378906 375.304688 C 450.34375 375.039062 450.519531 374.84375 450.777344 374.871094 L 456.976562 375.503906 C 457.226562 375.527344 457.464844 375.761719 457.5 376.027344 L 457.6875 377.398438 C 457.726562 377.660156 457.550781 377.855469 457.296875 377.828125 " fill-opacity="1" fill-rule="nonzero"/><path fill="#ebd2ff" d="M 466.960938 378.785156 L 460.925781 378.1875 C 460.675781 378.164062 460.445312 377.929688 460.410156 377.667969 L 460.21875 376.300781 C 460.183594 376.042969 460.355469 375.847656 460.605469 375.875 L 466.640625 376.488281 C 466.882812 376.515625 467.113281 376.746094 467.152344 377.003906 L 467.34375 378.359375 C 467.378906 378.617188 467.207031 378.808594 466.960938 378.785156 " fill-opacity="1" fill-rule="nonzero"/><path fill="#ebd2ff" d="M 476.375 379.714844 L 470.496094 379.132812 C 470.253906 379.109375 470.027344 378.878906 469.988281 378.621094 L 469.796875 377.273438 C 469.761719 377.015625 469.929688 376.824219 470.171875 376.847656 L 476.050781 377.449219 C 476.289062 377.472656 476.511719 377.699219 476.550781 377.957031 L 476.742188 379.292969 C 476.777344 379.550781 476.613281 379.738281 476.375 379.714844 " fill-opacity="1" fill-rule="nonzero"/><path fill="#d8bcff" d="M 453.257812 256.8125 L 421.40625 253.390625 C 420.636719 253.308594 419.949219 252.628906 419.867188 251.871094 C 419.332031 246.632812 423.234375 242.847656 428.59375 243.421875 L 443.839844 245.058594 C 449.195312 245.636719 453.976562 250.351562 454.515625 255.597656 C 454.589844 256.351562 454.03125 256.898438 453.257812 256.8125 " fill-opacity="1" fill-rule="nonzero"/><path fill="#d8bcff" d="M 447.019531 277.109375 L 432 275.496094 C 426.582031 274.914062 421.746094 270.140625 421.203125 264.835938 C 421.128906 264.144531 421.648438 263.644531 422.355469 263.71875 L 454.433594 267.167969 C 455.140625 267.242188 455.773438 267.867188 455.847656 268.558594 C 456.390625 273.863281 452.441406 277.6875 447.019531 277.109375 " fill-opacity="1" fill-rule="nonzero"/><path fill="#c6aaff" d="M 457.050781 265.566406 L 419.347656 261.515625 C 417.503906 261.316406 415.859375 259.695312 415.671875 257.886719 C 415.488281 256.082031 416.832031 254.78125 418.675781 254.976562 L 456.378906 259.03125 C 458.222656 259.226562 459.867188 260.851562 460.054688 262.65625 C 460.238281 264.464844 458.894531 265.765625 457.050781 265.566406 " fill-opacity="1" fill-rule="nonzero"/><path fill="#c6aaff" d="M 429.519531 247.722656 C 429.582031 248.335938 429.128906 248.773438 428.5 248.707031 C 427.875 248.644531 427.316406 248.089844 427.257812 247.480469 C 427.191406 246.867188 427.648438 246.425781 428.273438 246.492188 C 428.898438 246.558594 429.457031 247.113281 429.519531 247.722656 " fill-opacity="1" fill-rule="nonzero"/><path fill="#c6aaff" d="M 434.472656 246.175781 C 434.535156 246.785156 434.082031 247.226562 433.457031 247.15625 C 432.832031 247.089844 432.273438 246.539062 432.210938 245.929688 C 432.148438 245.316406 432.601562 244.875 433.226562 244.941406 C 433.855469 245.011719 434.414062 245.558594 434.472656 246.175781 " fill-opacity="1" fill-rule="nonzero"/><path fill="#c6aaff" d="M 439.859375 248.835938 C 439.921875 249.445312 439.46875 249.886719 438.84375 249.820312 C 438.214844 249.753906 437.660156 249.203125 437.59375 248.589844 C 437.535156 247.980469 437.988281 247.539062 438.613281 247.605469 C 439.238281 247.671875 439.796875 248.222656 439.859375 248.835938 " fill-opacity="1" fill-rule="nonzero"/><path fill="#c6aaff" d="M 444.8125 247.285156 C 444.878906 247.894531 444.421875 248.335938 443.796875 248.269531 C 443.171875 248.203125 442.613281 247.652344 442.550781 247.042969 C 442.488281 246.429688 442.941406 245.988281 443.570312 246.054688 C 444.195312 246.125 444.75 246.671875 444.8125 247.285156 " fill-opacity="1" fill-rule="nonzero"/><path fill="#cfacff" d="M 367.832031 268.597656 L 347.964844 266.46875 C 346.820312 266.339844 345.773438 265.386719 345.554688 264.257812 L 337.457031 222.632812 C 337.207031 221.351562 338.117188 220.363281 339.421875 220.503906 L 367.011719 223.464844 C 368.316406 223.609375 369.453125 224.8125 369.464844 226.074219 L 369.835938 266.867188 C 369.847656 267.972656 368.976562 268.726562 367.832031 268.597656 " fill-opacity="1" fill-rule="nonzero"/><path fill="#b996ff" d="M 343.5625 254.007812 L 369.742188 256.824219 L 369.5625 236.964844 L 339.621094 233.75 L 343.5625 254.007812 " fill-opacity="1" fill-rule="nonzero"/><path fill="#cfacff" d="M 362.078125 221.597656 L 344.074219 219.660156 C 343.074219 219.550781 342.179688 218.671875 342.078125 217.6875 C 341.976562 216.707031 342.707031 216 343.710938 216.109375 L 361.714844 218.042969 C 362.714844 218.148438 363.609375 219.03125 363.710938 220.011719 C 363.8125 220.992188 363.082031 221.703125 362.078125 221.597656 " fill-opacity="1" fill-rule="nonzero"/><path fill="#b996ff" d="M 369.425781 226.515625 L 337.589844 223.09375 C 336.742188 223.003906 335.984375 222.257812 335.898438 221.425781 L 335.820312 220.667969 C 335.605469 218.570312 337.171875 217.058594 339.3125 217.285156 L 366.453125 220.203125 C 368.597656 220.433594 370.511719 222.320312 370.726562 224.417969 L 370.804688 225.179688 C 370.890625 226.007812 370.273438 226.605469 369.425781 226.515625 " fill-opacity="1" fill-rule="nonzero"/><path fill="#b996ff" d="M 425.527344 323.542969 L 424.875 317.203125 L 421.257812 316.816406 C 416.769531 312.894531 409.269531 309.8125 401.003906 308.925781 C 392.734375 308.035156 385.710938 309.558594 381.933594 312.589844 L 378.320312 312.203125 L 378.964844 318.5 C 378.972656 318.625 378.980469 318.75 378.992188 318.878906 C 379.699219 325.757812 390.699219 332.453125 403.5625 333.835938 C 416.425781 335.21875 426.277344 330.761719 425.570312 323.882812 C 425.558594 323.769531 425.546875 323.65625 425.527344 323.542969 " fill-opacity="1" fill-rule="nonzero"/><path fill="#c6aaff" d="M 403.5625 333.839844 C 416.425781 335.21875 426.277344 330.761719 425.570312 323.882812 C 425.558594 323.769531 425.546875 323.660156 425.527344 323.546875 L 424.875 317.203125 L 421.257812 316.816406 C 416.765625 312.894531 409.269531 309.816406 401.003906 308.925781 C 399.429688 308.753906 397.90625 308.675781 396.4375 308.675781 L 392.109375 331.066406 C 395.558594 332.414062 399.464844 333.398438 403.5625 333.839844 " fill-opacity="1" fill-rule="nonzero"/><path fill="#cfacff" d="M 424.863281 316.992188 C 425.570312 323.871094 415.714844 328.324219 402.855469 326.945312 C 389.992188 325.5625 378.992188 318.867188 378.285156 311.988281 C 377.578125 305.109375 387.433594 300.652344 400.292969 302.035156 C 413.15625 303.414062 424.15625 310.113281 424.863281 316.992188 " fill-opacity="1" fill-rule="nonzero"/><path fill="#d8bcff" d="M 402.855469 326.945312 C 415.714844 328.328125 425.570312 323.871094 424.863281 316.992188 C 424.15625 310.113281 413.15625 303.417969 400.292969 302.035156 C 399.433594 301.941406 398.589844 301.875 397.757812 301.835938 L 393.308594 324.863281 C 396.261719 325.859375 399.496094 326.585938 402.855469 326.945312 " fill-opacity="1" fill-rule="nonzero"/><path fill="#cfacff" d="M 378.261719 311.308594 C 378.261719 311.308594 377.695312 317.621094 378.796875 317.917969 C 379.894531 318.210938 380.546875 317.582031 380.546875 317.582031 L 381.066406 319.5625 C 381.382812 320.753906 382.777344 321.511719 383.761719 321.027344 C 384.203125 320.8125 384.816406 321.042969 385.125 321.53125 L 387.492188 325.332031 C 387.992188 326.128906 389.117188 326.253906 389.429688 325.527344 C 389.722656 324.847656 390.222656 324.28125 391.058594 324.300781 C 393.113281 324.347656 394.46875 326.242188 395.003906 327.957031 C 395.535156 329.675781 398.726562 332.027344 398.632812 329.398438 C 398.539062 326.765625 397.097656 324.863281 398.9375 326.285156 C 400.78125 327.707031 400.097656 331.476562 402.144531 331.433594 C 404.195312 331.390625 402.289062 327.605469 404.320312 327.386719 C 406.351562 327.167969 406.117188 329.242188 407.859375 330.566406 C 409.601562 331.886719 412.246094 331.558594 412.234375 327.976562 C 412.222656 324.390625 415.746094 329.136719 416.371094 329.992188 C 416.996094 330.84375 420.089844 330.566406 419.113281 328.015625 C 418.136719 325.464844 418.875 324.84375 419.824219 325.386719 C 420.773438 325.921875 422.265625 329.140625 422.789062 327.273438 C 423.308594 325.40625 422.488281 322.609375 424.101562 323.570312 C 425.71875 324.53125 426.957031 322.523438 424.863281 316.992188 C 424.863281 316.992188 401.824219 332.972656 378.261719 311.308594 " fill-opacity="1" fill-rule="nonzero"/><path fill="#d8bcff" d="M 395.003906 327.960938 C 395.535156 329.679688 398.726562 332.03125 398.632812 329.398438 C 398.539062 326.769531 397.09375 324.863281 398.9375 326.285156 C 400.78125 327.707031 400.097656 331.476562 402.144531 331.4375 C 404.195312 331.394531 402.285156 327.605469 404.316406 327.386719 C 406.347656 327.171875 406.117188 329.242188 407.859375 330.566406 C 409.601562 331.886719 412.246094 331.558594 412.234375 327.976562 C 412.222656 324.394531 415.746094 329.140625 416.371094 329.992188 C 416.996094 330.847656 420.089844 330.566406 419.113281 328.015625 C 418.136719 325.464844 418.875 324.84375 419.824219 325.382812 C 420.773438 325.921875 422.265625 329.140625 422.785156 327.277344 C 423.308594 325.410156 422.484375 322.613281 424.101562 323.574219 C 425.71875 324.535156 426.957031 322.523438 424.863281 316.992188 C 424.863281 316.992188 411.15625 326.5 394.074219 320.90625 L 393.25 325.171875 C 394.097656 325.894531 394.691406 326.957031 395.003906 327.960938 " fill-opacity="1" fill-rule="nonzero"/><path fill="#b996ff" d="M 385.675781 308.433594 C 385.730469 308.972656 385.332031 309.359375 384.78125 309.300781 C 384.234375 309.242188 383.746094 308.757812 383.691406 308.222656 C 383.636719 307.683594 384.035156 307.296875 384.582031 307.355469 C 385.132812 307.414062 385.621094 307.898438 385.675781 308.433594 " fill-opacity="1" fill-rule="nonzero"/><path fill="#b996ff" d="M 385.273438 315.820312 C 385.328125 316.355469 384.929688 316.742188 384.382812 316.683594 C 383.832031 316.625 383.34375 316.140625 383.289062 315.605469 C 383.234375 315.070312 383.632812 314.679688 384.179688 314.742188 C 384.730469 314.796875 385.21875 315.28125 385.273438 315.820312 " fill-opacity="1" fill-rule="nonzero"/><path fill="#b996ff" d="M 392.074219 305.539062 C 392.128906 306.078125 391.730469 306.464844 391.179688 306.40625 C 390.632812 306.347656 390.144531 305.863281 390.089844 305.328125 C 390.03125 304.792969 390.433594 304.402344 390.980469 304.460938 C 391.53125 304.519531 392.019531 305.003906 392.074219 305.539062 " fill-opacity="1" fill-rule="nonzero"/><path fill="#c6aaff" d="M 402.011719 306.695312 C 402.070312 307.230469 401.667969 307.617188 401.121094 307.558594 C 400.570312 307.5 400.082031 307.019531 400.027344 306.480469 C 399.972656 305.941406 400.371094 305.558594 400.921875 305.617188 C 401.46875 305.675781 401.957031 306.160156 402.011719 306.695312 " fill-opacity="1" fill-rule="nonzero"/><path fill="#c6aaff" d="M 406.445312 305.511719 C 406.5 306.050781 406.097656 306.4375 405.550781 306.378906 C 405.003906 306.320312 404.511719 305.835938 404.457031 305.300781 C 404.402344 304.761719 404.804688 304.375 405.351562 304.433594 C 405.898438 304.492188 406.390625 304.976562 406.445312 305.511719 " fill-opacity="1" fill-rule="nonzero"/><path fill="#c6aaff" d="M 417.363281 310.964844 C 417.417969 311.5 417.015625 311.886719 416.46875 311.828125 C 415.921875 311.773438 415.429688 311.289062 415.375 310.75 C 415.320312 310.214844 415.71875 309.828125 416.269531 309.886719 C 416.816406 309.945312 417.304688 310.425781 417.363281 310.964844 " fill-opacity="1" fill-rule="nonzero"/><path fill="#c6aaff" d="M 416.179688 316.867188 C 416.238281 317.402344 415.835938 317.792969 415.289062 317.734375 C 414.742188 317.675781 414.25 317.191406 414.195312 316.65625 C 414.140625 316.117188 414.539062 315.730469 415.089844 315.789062 C 415.636719 315.847656 416.125 316.332031 416.179688 316.867188 " fill-opacity="1" fill-rule="nonzero"/><path fill="#c6aaff" d="M 421.84375 319.832031 C 421.898438 320.371094 421.5 320.757812 420.949219 320.699219 C 420.402344 320.640625 419.914062 320.160156 419.859375 319.621094 C 419.804688 319.085938 420.203125 318.695312 420.75 318.757812 C 421.296875 318.816406 421.789062 319.296875 421.84375 319.832031 " fill-opacity="1" fill-rule="nonzero"/><path fill="#ffffff" d="M 416.132812 323.332031 C 416.1875 323.867188 415.785156 324.253906 415.238281 324.195312 C 414.691406 324.136719 414.199219 323.652344 414.144531 323.113281 C 414.089844 322.578125 414.492188 322.191406 415.039062 322.25 C 415.585938 322.308594 416.074219 322.792969 416.132812 323.332031 " fill-opacity="1" fill-rule="nonzero"/><path fill="#c6aaff" d="M 416.132812 323.332031 C 416.1875 323.867188 415.785156 324.253906 415.238281 324.195312 C 414.691406 324.136719 414.199219 323.652344 414.144531 323.113281 C 414.089844 322.578125 414.492188 322.191406 415.039062 322.25 C 415.585938 322.308594 416.074219 322.792969 416.132812 323.332031 " fill-opacity="1" fill-rule="nonzero"/><path fill="#c6aaff" d="M 411.15625 319.210938 C 411.210938 319.746094 410.8125 320.136719 410.261719 320.078125 C 409.714844 320.019531 409.222656 319.535156 409.167969 318.996094 C 409.113281 318.460938 409.511719 318.074219 410.0625 318.132812 C 410.613281 318.191406 411.101562 318.675781 411.15625 319.210938 " fill-opacity="1" fill-rule="nonzero"/><path fill="#c6aaff" d="M 404.75 323.765625 C 404.804688 324.300781 404.40625 324.6875 403.855469 324.628906 C 403.308594 324.570312 402.820312 324.085938 402.761719 323.550781 C 402.710938 323.015625 403.109375 322.628906 403.65625 322.683594 C 404.207031 322.742188 404.695312 323.226562 404.75 323.765625 " fill-opacity="1" fill-rule="nonzero"/><path fill="#c6aaff" d="M 402.363281 319.664062 C 402.417969 320.203125 402.019531 320.589844 401.472656 320.53125 C 400.921875 320.46875 400.433594 319.988281 400.378906 319.449219 C 400.324219 318.914062 400.722656 318.527344 401.273438 318.585938 C 401.820312 318.644531 402.308594 319.128906 402.363281 319.664062 " fill-opacity="1" fill-rule="nonzero"/><path fill="#b996ff" d="M 395.132812 321.421875 C 395.191406 321.957031 394.789062 322.347656 394.242188 322.289062 C 393.691406 322.230469 393.203125 321.746094 393.148438 321.210938 C 393.09375 320.671875 393.492188 320.285156 394.042969 320.34375 C 394.589844 320.402344 395.078125 320.886719 395.132812 321.421875 " fill-opacity="1" fill-rule="nonzero"/><path fill="#c6aaff" d="M 394.242188 322.285156 C 394.789062 322.347656 395.191406 321.957031 395.132812 321.421875 C 395.085938 320.929688 394.667969 320.484375 394.175781 320.367188 L 393.832031 322.160156 C 393.960938 322.226562 394.097656 322.269531 394.242188 322.285156 " fill-opacity="1" fill-rule="nonzero"/><path fill="#b996ff" d="M 391.601562 314.839844 C 391.65625 315.375 391.257812 315.761719 390.707031 315.703125 C 390.160156 315.644531 389.671875 315.164062 389.617188 314.625 C 389.558594 314.089844 389.960938 313.703125 390.507812 313.761719 C 391.058594 313.820312 391.546875 314.304688 391.601562 314.839844 " fill-opacity="1" fill-rule="nonzero"/><path fill="#b996ff" d="M 412.019531 313.707031 C 412.234375 315.789062 407.640625 316.964844 401.765625 316.328125 C 395.886719 315.699219 390.949219 313.5 390.734375 311.421875 C 390.519531 309.339844 395.113281 308.164062 400.988281 308.796875 C 406.867188 309.429688 411.804688 311.625 412.019531 313.707031 " fill-opacity="1" fill-rule="nonzero"/><path fill="#c6aaff" d="M 412.019531 313.707031 C 411.804688 311.628906 406.867188 309.429688 400.988281 308.796875 C 399.347656 308.625 397.804688 308.585938 396.4375 308.671875 L 395.238281 314.871094 C 397.078125 315.546875 399.339844 316.070312 401.761719 316.332031 C 407.640625 316.964844 412.230469 315.789062 412.019531 313.707031 " fill-opacity="1" fill-rule="nonzero"/><path fill="#e6c7ff" d="M 393.179688 313.953125 C 395.21875 315.054688 398.328125 315.964844 401.765625 316.332031 C 405.195312 316.699219 408.191406 316.453125 410.042969 315.769531 C 408.007812 314.664062 404.894531 313.757812 401.460938 313.390625 C 398.027344 313.023438 395.035156 313.269531 393.179688 313.953125 " fill-opacity="1" fill-rule="nonzero"/><path fill="#ebd2ff" d="M 401.765625 316.328125 C 405.199219 316.699219 408.191406 316.449219 410.042969 315.765625 C 408.007812 314.664062 404.894531 313.757812 401.460938 313.390625 C 399.230469 313.152344 397.191406 313.171875 395.523438 313.40625 L 395.242188 314.867188 C 397.078125 315.542969 399.339844 316.070312 401.765625 316.328125 " fill-opacity="1" fill-rule="nonzero"/><path fill="#cfacff" d="M 398.507812 263.6875 L 392.898438 263.085938 L 391.007812 244.714844 L 396.621094 245.316406 L 398.507812 263.6875 " fill-opacity="1" fill-rule="nonzero"/><path fill="#cfacff" d="M 403.863281 252.464844 L 404.429688 257.953125 L 385.65625 255.9375 L 385.089844 250.445312 L 403.863281 252.464844 " fill-opacity="1" fill-rule="nonzero"/><path fill="#cfacff" d="M 406.535156 278.472656 L 407.101562 283.96875 L 388.328125 281.949219 L 387.765625 276.457031 L 406.535156 278.472656 " fill-opacity="1" fill-rule="nonzero"/><path fill="#cfacff" d="M 407.457031 287.4375 L 408.023438 292.933594 L 389.25 290.914062 L 388.6875 285.421875 L 407.457031 287.4375 " fill-opacity="1" fill-rule="nonzero"/><path fill="#d8bcff" d="M 407.457031 287.4375 L 400.683594 286.710938 L 399.652344 292.03125 L 408.023438 292.929688 L 407.457031 287.4375 " fill-opacity="1" fill-rule="nonzero"/><path fill="#d8bcff" d="M 406.535156 278.472656 L 402.359375 278.023438 L 401.332031 283.347656 L 407.101562 283.96875 L 406.535156 278.472656 " fill-opacity="1" fill-rule="nonzero"/><path fill="#9345e5" d="M 337.667969 421.378906 L 498.3125 429.292969 L 461.625 153.183594 L 297.324219 94.835938 Z M 500.222656 432.71875 C 500.199219 432.71875 500.167969 432.71875 500.144531 432.714844 L 336.105469 424.636719 C 335.296875 424.597656 334.632812 423.980469 334.535156 423.179688 L 293.6875 92.570312 C 293.617188 92 293.851562 91.433594 294.300781 91.070312 C 294.75 90.710938 295.355469 90.605469 295.898438 90.800781 L 463.695312 150.386719 C 464.285156 150.597656 464.707031 151.113281 464.789062 151.734375 L 501.875 430.832031 C 501.941406 431.324219 501.785156 431.816406 501.449219 432.179688 C 501.132812 432.523438 500.6875 432.71875 500.222656 432.71875 " fill-opacity="1" fill-rule="nonzero"/><path fill="#ffffff" d="M 359.707031 627.890625 C 347.5625 628.449219 336.894531 618.871094 335.417969 606.070312 L 274.675781 69.039062 C 274.667969 68.96875 274.660156 68.914062 274.648438 68.847656 C 274.613281 68.652344 274.125 64.191406 277.039062 59.355469 C 277.691406 58.277344 278.320312 56.910156 279.46875 54.707031 C 277.664062 55.730469 276.941406 55.835938 274.699219 58.414062 L 269.75 64.5625 C 269.371094 67.1875 269.640625 69.152344 269.730469 69.679688 L 330.464844 606.636719 C 332.191406 621.605469 344.464844 632.902344 358.699219 632.902344 C 359.125 632.902344 359.554688 632.890625 359.984375 632.871094 C 360.011719 632.871094 360.039062 632.867188 360.066406 632.867188 L 523.488281 619.742188 C 526.417969 618.78125 531.03125 616.925781 532.789062 613.988281 L 359.707031 627.890625 " fill-opacity="1" fill-rule="nonzero"/><path fill="#ab5af2" d="M 403.335938 459.792969 L 411.335938 533.492188 L 437.589844 515.902344 L 442.550781 479.898438 L 403.335938 459.792969 " fill-opacity="1" fill-rule="nonzero"/><path fill="#9345e5" d="M 462.046875 461.304688 L 403.335938 459.792969 L 437.589844 515.902344 L 411.335938 533.492188 L 467.796875 529.933594 L 489.617188 513.722656 L 462.046875 461.304688 " fill-opacity="1" fill-rule="nonzero"/><path fill="#d293ff" d="M 437.589844 515.902344 L 489.617188 513.722656 L 462.046875 461.304688 L 403.335938 459.792969 L 437.589844 515.902344 " fill-opacity="1" fill-rule="nonzero"/><path fill="#ab5af2" d="M 457.359375 467.609375 C 465.53125 481.914062 471.300781 492.777344 478.648438 506.492188 C 472.1875 506.722656 448.914062 508.242188 441.632812 508.558594 C 433.160156 494.042969 425.855469 481.894531 416.386719 466.671875 C 424.316406 466.703125 450.375 467.546875 457.359375 467.609375 " fill-opacity="1" fill-rule="nonzero"/><path fill="#9345e5" d="M 456.796875 469.644531 C 464.558594 483.261719 469.953125 493.457031 476.96875 506.542969 C 477.542969 506.523438 478.113281 506.503906 478.683594 506.480469 C 471.769531 493.207031 458.363281 469.363281 457.359375 467.613281 C 457.34375 467.613281 457.328125 467.613281 457.304688 467.613281 C 457.136719 468.289062 456.964844 468.96875 456.796875 469.644531 " fill-opacity="1" fill-rule="nonzero"/><path fill="#9345e5" d="M 417.855469 469.035156 C 425.058594 468.988281 450.421875 469.664062 456.800781 469.644531 C 456.96875 468.964844 457.136719 468.289062 457.304688 467.609375 C 450.335938 467.546875 424.296875 466.703125 416.386719 466.671875 C 416.878906 467.460938 417.367188 468.25 417.855469 469.035156 " fill-opacity="1" fill-rule="nonzero"/><path fill="#9345e5" d="M 469.199219 499.730469 C 469.03125 500.402344 468.710938 501.558594 468.539062 502.230469 C 464.761719 502.375 448.894531 503.421875 444.8125 503.597656 L 446.046875 500.835938 C 450.265625 500.699219 465.285156 499.839844 469.199219 499.730469 " fill-opacity="1" fill-rule="nonzero"/><path fill="#9345e5" d="M 444.894531 485.675781 C 440.308594 482.28125 435.464844 478.410156 430.699219 474.941406 L 429.910156 478.425781 L 444.8125 503.597656 L 446.046875 500.835938 C 445.691406 495.695312 445.320312 490.855469 444.894531 485.675781 " fill-opacity="1" fill-rule="nonzero"/><path fill="#d293ff" d="M 446.046875 500.835938 C 441.15625 492.375 435.941406 483.671875 430.699219 474.945312 L 455.296875 474.886719 C 460.085938 483.289062 464.71875 491.570312 469.199219 499.734375 C 465.285156 499.839844 450.265625 500.699219 446.046875 500.835938 " fill-opacity="1" fill-rule="nonzero"/><path fill="#9345e5" d="M 435.660156 483.433594 C 435.601562 483.304688 435.542969 483.179688 435.488281 483.054688 C 439.855469 482.992188 455.761719 482.933594 459.804688 482.890625 C 459.871094 483.011719 459.9375 483.132812 460.007812 483.253906 C 455.953125 483.296875 440.046875 483.367188 435.660156 483.433594 " fill-opacity="1" fill-rule="nonzero"/><path fill="#9345e5" d="M 447.824219 474.902344 C 447.9375 474.902344 448.046875 474.898438 448.160156 474.902344 C 452.988281 483.410156 457.683594 491.84375 462.199219 500.109375 C 462.09375 500.113281 461.984375 500.113281 461.878906 500.117188 C 457.359375 491.847656 452.660156 483.414062 447.824219 474.902344 " fill-opacity="1" fill-rule="nonzero"/><path fill="#9345e5" d="M 439.132812 474.921875 C 439.25 474.921875 439.367188 474.921875 439.484375 474.921875 C 444.554688 483.546875 449.554688 492.195312 454.296875 500.5625 C 454.183594 500.5625 454.074219 500.566406 453.964844 500.570312 C 449.21875 492.199219 444.214844 483.550781 439.132812 474.921875 " fill-opacity="1" fill-rule="nonzero"/><path fill="#9345e5" d="M 440.851562 492.257812 C 440.8125 492.136719 440.773438 492.011719 440.730469 491.886719 C 445.082031 491.800781 460.566406 491.488281 464.59375 491.421875 C 464.660156 491.539062 464.726562 491.660156 464.792969 491.777344 C 460.738281 491.847656 445.234375 492.167969 440.851562 492.257812 " fill-opacity="1" fill-rule="nonzero"/><path fill="#ffffff" d="M 437.785156 515.375 C 437.753906 515.234375 437.703125 515.09375 437.625 514.960938 L 403.957031 459.808594 L 403.335938 459.792969 L 403.46875 461.007812 L 436.738281 515.503906 C 436.820312 515.640625 436.78125 515.820312 436.648438 515.910156 L 411.273438 532.90625 L 411.335938 533.492188 L 412.367188 533.425781 L 437.226562 516.773438 C 437.371094 516.675781 437.488281 516.558594 437.582031 516.421875 C 437.597656 516.425781 437.605469 516.425781 437.613281 516.421875 L 488.875 514.273438 L 489.617188 513.722656 L 489.347656 513.210938 L 437.785156 515.375 " fill-opacity="1" fill-rule="nonzero"/></svg>